<?xml version="1.0" encoding="UTF-8"?>
<svg width="266px" height="100px" viewBox="0 0 266 100" version="1.1" xmlns="http://www.w3.org/2000/svg" xmlns:xlink="http://www.w3.org/1999/xlink">
    <title>Logo Outline</title>
    <g id="Logo-Outline" stroke="none" stroke-width="1" fill="none" fill-rule="evenodd">
        <rect id="Rectangle" fill="#FE6A4D" x="166" y="0" width="100" height="100" rx="5"></rect>
        <path d="M191.232422,80.4101562 C192.547526,80.4101562 193.703125,80.1627604 194.699219,79.6679688 C195.695312,79.1731771 196.538411,78.4440104 197.228516,77.4804688 L197.228516,77.4804688 L197.541016,80 L204.064453,80 L204.064453,77.5390625 L200.880859,76.9921875 L200.880859,49.53125 L193.849609,49.53125 L193.849609,52.0117188 L197.033203,52.5585938 L197.033203,61.171875 C196.35612,60.2994792 195.539062,59.6321615 194.582031,59.1699219 C193.625,58.7076823 192.521484,58.4765625 191.271484,58.4765625 C189.539714,58.4765625 188.055339,58.9485677 186.818359,59.8925781 C185.58138,60.8365885 184.63737,62.1614583 183.986328,63.8671875 C183.335286,65.5729167 183.009766,67.5585938 183.009766,69.8242188 L183.009766,69.8242188 L183.009766,70.234375 C183.009766,72.265625 183.335286,74.0429688 183.986328,75.5664062 C184.63737,77.0898438 185.578125,78.2779948 186.808594,79.1308594 C188.039062,79.983724 189.513672,80.4101562 191.232422,80.4101562 Z M192.208984,77.2851562 C190.386068,77.2851562 189.038411,76.640625 188.166016,75.3515625 C187.29362,74.0625 186.857422,72.3567708 186.857422,70.234375 L186.857422,70.234375 L186.857422,69.8242188 C186.857422,68.1966146 187.052734,66.7675781 187.443359,65.5371094 C187.833984,64.3066406 188.426432,63.343099 189.220703,62.6464844 C190.014974,61.9498698 191.024089,61.6015625 192.248047,61.6015625 C193.354818,61.6015625 194.305339,61.8619792 195.099609,62.3828125 C195.89388,62.9036458 196.538411,63.6067708 197.033203,64.4921875 L197.033203,64.4921875 L197.033203,74.296875 C196.525391,75.2473958 195.880859,75.9830729 195.099609,76.5039062 C194.318359,77.0247396 193.354818,77.2851562 192.208984,77.2851562 Z M216.349609,80.4101562 C218.094401,80.4101562 219.588542,80.1595052 220.832031,79.6582031 C222.075521,79.156901 223.07487,78.5416667 223.830078,77.8125 L223.830078,77.8125 L222.326172,75.3125 C221.610026,75.9635417 220.760417,76.4746094 219.777344,76.8457031 C218.794271,77.2167969 217.651693,77.4023438 216.349609,77.4023438 C215.164714,77.4023438 214.149089,77.1028646 213.302734,76.5039062 C212.45638,75.9049479 211.808594,75.0813802 211.359375,74.0332031 C210.910156,72.985026 210.672526,71.7838542 210.646484,70.4296875 L210.646484,70.4296875 L210.705078,70.3320312 L224.416016,70.3320312 L224.416016,67.9296875 C224.416016,66.015625 224.090495,64.3522135 223.439453,62.9394531 C222.788411,61.5266927 221.821615,60.4296875 220.539062,59.6484375 C219.25651,58.8671875 217.664714,58.4765625 215.763672,58.4765625 C214.136068,58.4765625 212.635417,58.9355469 211.261719,59.8535156 C209.888021,60.7714844 208.78776,62.0214844 207.960938,63.6035156 C207.134115,65.1855469 206.720703,66.9791667 206.720703,68.984375 L206.720703,68.984375 L206.720703,69.84375 C206.720703,71.9270833 207.114583,73.7630208 207.902344,75.3515625 C208.690104,76.9401042 209.806641,78.1803385 211.251953,79.0722656 C212.697266,79.9641927 214.396484,80.4101562 216.349609,80.4101562 Z M220.568359,67.3242188 L210.822266,67.3242188 L210.783203,67.2265625 C210.926432,66.1328125 211.225911,65.15625 211.681641,64.296875 C212.13737,63.4375 212.716797,62.7571615 213.419922,62.2558594 C214.123047,61.7545573 214.904297,61.5039062 215.763672,61.5039062 C216.83138,61.5039062 217.720052,61.735026 218.429688,62.1972656 C219.139323,62.6595052 219.673177,63.2910156 220.03125,64.0917969 C220.389323,64.8925781 220.568359,65.8007812 220.568359,66.8164062 L220.568359,66.8164062 L220.568359,67.3242188 Z M239.552734,80 L246.701172,61.640625 L248.927734,61.3476562 L248.927734,58.8671875 L240.080078,58.8671875 L240.080078,61.3476562 L242.912109,61.7382812 L238.556641,73.7695312 L237.931641,75.46875 L237.814453,75.46875 L237.267578,73.7695312 L232.580078,61.7382812 L235.333984,61.3476562 L235.333984,58.8671875 L226.466797,58.8671875 L226.466797,61.3476562 L228.654297,61.640625 L236.173828,80 L239.552734,80 Z" id="dev" fill="#FFFFFF" fill-rule="nonzero"></path>
        <path d="M12.57,86.56 C13.5033333,86.56 14.3666667,86.525 15.16,86.455 C15.9533333,86.385 16.8166667,86.28 17.75,86.14 L17.75,86.14 L17.75,80.61 C17.2833333,80.6566667 16.805,80.7033333 16.315,80.75 C15.825,80.7966667 15.3933333,80.82 15.02,80.82 C13.5733333,80.82 12.5933333,80.4816667 12.08,79.805 C11.5666667,79.1283333 11.31,77.9966667 11.31,76.41 L11.31,76.41 L11.31,50.51 L17.82,50.51 L17.82,45.54 L11.31,45.54 L11.31,33.71 L3.82,33.71 L3.82,45.54 L-0.45,45.54 L-0.45,50.51 L3.82,50.51 L3.82,76.9 C3.82,78.86 4.11166667,80.5633333 4.695,82.01 C5.27833333,83.4566667 6.21166667,84.5766667 7.495,85.37 C8.77833333,86.1633333 10.47,86.56 12.57,86.56 Z M34.55,86.56 C38.7033333,86.56 41.6433333,85.3933333 43.37,83.06 C45.0966667,80.7266667 45.96,77.53 45.96,73.47 L45.96,73.47 L45.96,71.93 L38.68,71.93 L38.68,74.38 C38.68,75.7333333 38.575,76.9116667 38.365,77.915 C38.155,78.9183333 37.7583333,79.6883333 37.175,80.225 C36.5916667,80.7616667 35.74,81.03 34.62,81.03 C33.5466667,81.03 32.6716667,80.785 31.995,80.295 C31.3183333,79.805 30.8283333,79.0466667 30.525,78.02 C30.2216667,76.9933333 30.07,75.6633333 30.07,74.03 L30.07,74.03 L30.07,65.91 L46.03,65.91 L46.03,62.62 C46.03,58.9333333 45.7733333,55.7716667 45.26,53.135 C44.7466667,50.4983333 43.685,48.48 42.075,47.08 C40.465,45.68 37.9566667,44.98 34.55,44.98 C31.47,44.98 29.055,45.5866667 27.305,46.8 C25.555,48.0133333 24.33,49.81 23.63,52.19 C22.93,54.57 22.58,57.5566667 22.58,61.15 L22.58,61.15 L22.58,70.39 C22.58,73.89 22.9183333,76.8416667 23.595,79.245 C24.2716667,81.6483333 25.4733333,83.4683333 27.2,84.705 C28.9266667,85.9416667 31.3766667,86.56 34.55,86.56 Z M38.68,61.85 L30.07,61.85 L30.07,59.68 C30.07,57.3466667 30.1866667,55.515 30.42,54.185 C30.6533333,52.855 31.085,51.91 31.715,51.35 C32.345,50.79 33.2666667,50.51 34.48,50.51 C35.74,50.51 36.6616667,50.8016667 37.245,51.385 C37.8283333,51.9683333 38.2133333,52.8316667 38.4,53.975 C38.5866667,55.1183333 38.68,56.53 38.68,58.21 L38.68,58.21 L38.68,61.85 Z M60.31,86 L60.31,53.38 C61.15,52.68 62.025,52.085 62.935,51.595 C63.845,51.105 64.72,50.86 65.56,50.86 C66.8666667,50.86 67.73,51.2566667 68.15,52.05 C68.57,52.8433333 68.78,53.9633333 68.78,55.41 L68.78,55.41 L68.78,86 L76.27,86 L76.27,53.24 C76.27,51.9333333 76.095,50.65 75.745,49.39 C75.395,48.13 74.7883333,47.08 73.925,46.24 C73.0616667,45.4 71.8133333,44.98 70.18,44.98 C68.22,44.98 66.4233333,45.4233333 64.79,46.31 C63.1566667,47.1966667 61.6633333,48.27 60.31,49.53 L60.31,49.53 L60.31,45.54 L52.82,45.54 L52.82,86 L60.31,86 Z M94.33,86.56 C95.2633333,86.56 96.1266667,86.525 96.92,86.455 C97.7133333,86.385 98.5766667,86.28 99.51,86.14 L99.51,86.14 L99.51,80.61 C99.0433333,80.6566667 98.565,80.7033333 98.075,80.75 C97.585,80.7966667 97.1533333,80.82 96.78,80.82 C95.3333333,80.82 94.3533333,80.4816667 93.84,79.805 C93.3266667,79.1283333 93.07,77.9966667 93.07,76.41 L93.07,76.41 L93.07,50.51 L99.58,50.51 L99.58,45.54 L93.07,45.54 L93.07,33.71 L85.58,33.71 L85.58,45.54 L81.31,45.54 L81.31,50.51 L85.58,50.51 L85.58,76.9 C85.58,78.86 85.8716667,80.5633333 86.455,82.01 C87.0383333,83.4566667 87.9716667,84.5766667 89.255,85.37 C90.5383333,86.1633333 92.23,86.56 94.33,86.56 Z M105.39,96.15 C107.863333,96.15 109.975,95.8933333 111.725,95.38 C113.475,94.8666667 114.91,94.0383333 116.03,92.895 C117.15,91.7516667 117.92,90.2 118.34,88.24 L118.34,88.24 L128,45.54 L120.44,45.54 L115.19,75.78 L109.73,45.54 L102.17,45.54 L110.29,79.98 C110.663333,81.6133333 111.013333,83.1533333 111.34,84.6 C111.666667,86.0466667 111.83,86.98 111.83,87.4 C111.83,88.1933333 111.596667,88.8116667 111.13,89.255 C110.663333,89.6983333 109.893333,90.0016667 108.82,90.165 C107.746667,90.3283333 106.3,90.41 104.48,90.41 L104.48,90.41 L104.48,96.15 L105.39,96.15 Z M140.04,99.3 L140.04,82.99 C140.926667,83.9233333 141.93,84.7516667 143.05,85.475 C144.17,86.1983333 145.453333,86.56 146.9,86.56 C149.56,86.56 151.625,85.7783333 153.095,84.215 C154.565,82.6516667 155.58,80.5983333 156.14,78.055 C156.7,75.5116667 156.98,72.8166667 156.98,69.97 L156.98,69.97 L156.98,60.17 C156.98,58.9566667 156.886667,57.4983333 156.7,55.795 C156.513333,54.0916667 156.116667,52.4116667 155.51,50.755 C154.903333,49.0983333 153.981667,47.7216667 152.745,46.625 C151.508333,45.5283333 149.84,44.98 147.74,44.98 C146.013333,44.98 144.52,45.3533333 143.26,46.1 C142,46.8466667 140.926667,47.7333333 140.04,48.76 L140.04,48.76 L140.04,45.54 L132.55,45.54 L132.55,99.3 L140.04,99.3 Z M145.43,80.68 C144.31,80.68 143.306667,80.505 142.42,80.155 C141.533333,79.805 140.74,79.3733333 140.04,78.86 L140.04,78.86 L140.04,52.96 C140.693333,52.4 141.463333,51.91 142.35,51.49 C143.236667,51.07 144.17,50.86 145.15,50.86 C146.456667,50.86 147.413333,51.28 148.02,52.12 C148.626667,52.96 149.023333,54.0916667 149.21,55.515 C149.396667,56.9383333 149.49,58.49 149.49,60.17 L149.49,60.17 L149.49,69.97 C149.49,71.93 149.42,73.7266667 149.28,75.36 C149.14,76.9933333 148.79,78.2883333 148.23,79.245 C147.67,80.2016667 146.736667,80.68 145.43,80.68 Z" id="tentyp" fill="#333A47" fill-rule="nonzero"></path>
    </g>
</svg>